HIERARCHY
ROOT Hips
{
    OFFSET 0.000000 0.000000 0.000000
    CHANNELS 6 Xposition Yposition Zposition Zrotation Xrotation Yrotation
    JOINT Spine
    {
        OFFSET -0.000000 14.517291 0.000000
        CHANNELS 3 Zrotation Xrotation Yrotation
        JOINT Spine1
        {
            OFFSET -0.000000 37.558300 0.000000
            CHANNELS 3 Zrotation Xrotation Yrotation
            JOINT Neck
            {
                OFFSET -0.000000 37.404057 3.400369
                CHANNELS 3 Zrotation Xrotation Yrotation
                JOINT Head
                {
                    OFFSET -0.000000 24.785618 -3.540803
                    CHANNELS 3 Zrotation Xrotation Yrotation
                    End Site
                    {
                        OFFSET -0.000000 35.408028 0.000000
                    }
                }
            }
            JOINT LeftShoulder
            {
                OFFSET 6.992933 33.973492 -0.192664
                CHANNELS 3 Zrotation Xrotation Yrotation
                JOINT LeftArm
                {
                    OFFSET 21.527611 0.000000 0.000000
                    CHANNELS 3 Zrotation Xrotation Yrotation
                    JOINT LeftForeArm
                    {
                        OFFSET 56.353916 0.000000 0.000000
                        CHANNELS 3 Zrotation Xrotation Yrotation
                        JOINT LeftHand
                        {
                            OFFSET 47.774071 0.000000 0.000000
                            CHANNELS 3 Zrotation Xrotation Yrotation
                            End Site
                            {
                                OFFSET 26.556021 0.000000 0.000000
                            }
                        }
                    }
                }
            }
            JOINT RightShoulder
            {
                OFFSET -7.065357 33.973492 -0.192664
                CHANNELS 3 Zrotation Xrotation Yrotation
                JOINT RightArm
                {
                    OFFSET -21.527611 0.000000 0.000000
                    CHANNELS 3 Zrotation Xrotation Yrotation
                    JOINT RightForeArm
                    {
                        OFFSET -56.353916 0.000000 0.000000
                        CHANNELS 3 Zrotation Xrotation Yrotation
                        JOINT RightHand
                        {
                            OFFSET -47.774071 0.000000 0.000000
                            CHANNELS 3 Zrotation Xrotation Yrotation
                            End Site
                            {
                                OFFSET -26.556021 0.000000 0.000000
                            }
                        }
                    }
                }
            }
        }
    }
    JOINT LeftUpLeg
    {
        OFFSET 17.704014 0.000000 0.000000
        CHANNELS 3 Zrotation Xrotation Yrotation
        JOINT LeftLeg
        {
            OFFSET -0.000000 -81.181816 0.000000
            CHANNELS 3 Zrotation Xrotation Yrotation
            JOINT LeftFoot
            {
                OFFSET -0.000000 -62.821102 0.000000
                CHANNELS 3 Zrotation Xrotation Yrotation
                JOINT LeftToeBase
                {
                    OFFSET -0.000000 -11.507608 26.556021
                    CHANNELS 3 Zrotation Xrotation Yrotation
                    End Site
                    {
                        OFFSET -0.000000 0.000000 7.081605
                    }
                }
            }
        }
    }
    JOINT RightUpLeg
    {
        OFFSET -17.704014 0.000000 0.000000
        CHANNELS 3 Zrotation Xrotation Yrotation
        JOINT RightLeg
        {
            OFFSET -0.000000 -81.181816 0.000000
            CHANNELS 3 Zrotation Xrotation Yrotation
            JOINT RightFoot
            {
                OFFSET -0.000000 -62.821102 0.000000
                CHANNELS 3 Zrotation Xrotation Yrotation
                JOINT RightToeBase
                {
                    OFFSET -0.000000 -11.507608 26.556021
                    CHANNELS 3 Zrotation Xrotation Yrotation
                    End Site
                    {
                        OFFSET -0.000000 0.000000 7.081605
                    }
                }
            }
        }
    }
}
MOTION
Frames:    9
Frame Time:    0.008333
-23.924395    166.015915    -19.571266    -9.053341    -20.450813    43.140095    6.960029    5.824602    -2.149370    0.823208    5.286920    -0.644085    22.872507    -8.017332    -3.459040    -2.689783    2.766807    -8.999900    11.244587    8.897445    -26.957142    -32.831001    15.768657    -57.555092    -0.448669    -33.654797    -100.980148    -13.121984    -32.329861    -18.305870    -1.489995    -8.846123    0.456051    31.219776    -19.895750    76.411018    -1.134076    5.230273    97.986343    -14.067017    3.680548    22.857986    24.164520    -2.517385    6.235219    -3.549821    33.390068    -18.346634    6.693570    -17.034906    31.329721    0.000000    0.000000    0.000000    -95.110695    -44.981777    -57.668152    8.636276    20.496859    -7.008607    16.183167    18.423670    -23.585485    0.000000    0.000000    0.000000    
-24.007246    166.030258    -19.544748    -9.056470    -20.487062    43.185471    7.007029    5.852935    -2.092382    0.835838    5.310230    -0.624682    22.782661    -8.094262    -3.526658    -2.604530    2.795559    -9.054579    11.230333    8.903182    -26.970999    -32.755997    15.818588    -57.594494    -0.422531    -33.729870    -100.993034    -13.114240    -32.378860    -18.322014    -1.714588    -7.267747    -0.644636    32.607407    -20.444508    79.238129    -1.103668    5.741744    97.493896    -14.403139    4.017165    23.324463    24.221771    -2.538105    6.217742    -3.532005    33.392986    -18.369659    6.659467    -17.017065    31.303066    0.000000    0.000000    0.000000    -95.088310    -44.967537    -57.632530    8.677138    20.535759    -6.993742    16.147781    18.380096    -23.567432    0.000000    0.000000    0.000000    
-24.091637    166.035049    -19.523609    -9.060428    -20.508116    43.218910    7.029859    5.876188    -2.030142    0.872670    5.332510    -0.604998    22.722759    -8.172786    -3.579233    -2.580151    2.821845    -9.107931    11.178831    8.904113    -26.976795    -32.652245    15.864417    -57.631111    -0.386089    -33.824196    -101.004074    -13.153202    -32.430717    -18.337214    -1.742985    -8.778349    0.567410    31.991198    -19.667948    77.820229    -1.566842    5.426752    98.304321    -14.044262    4.353664    23.133959    24.265650    -2.572952    6.225326    -3.499417    33.414017    -18.425371    6.639119    -17.000248    31.295527    0.000000    0.000000    0.000000    -95.097290    -44.970966    -57.644405    8.704842    20.579737    -6.973794    16.100447    18.367409    -23.528023    0.000000    0.000000    0.000000    
-24.183872    166.036316    -19.509939    -9.078541    -20.519920    43.246014    7.031775    5.898875    -1.972295    0.962590    5.340772    -0.589643    22.561846    -8.266408    -3.634472    -2.450748    2.871647    -9.131022    11.077684    8.906828    -26.966694    -32.556980    15.868831    -57.655506    -0.396586    -33.855125    -101.028328    -13.196571    -32.465324    -18.354395    -1.909926    -8.823038    0.679918    32.326111    -19.541128    78.315056    -1.729232    5.540304    98.533821    -14.010969    4.638979    23.373110    24.317928    -2.639283    6.205790    -3.500474    33.443802    -18.439466    6.829009    -16.902979    31.290051    0.000000    0.000000    0.000000    -95.127266    -44.984863    -57.666786    8.738839    20.632547    -6.955729    16.056923    18.353561    -23.506422    0.000000    0.000000    0.000000    
-24.270742    166.033463    -19.499311    -9.096098    -20.534872    43.273968    7.028961    5.901222    -1.923978    1.062773    5.382959    -0.578753    22.397631    -8.315685    -3.703801    -2.329280    2.868692    -9.161057    10.976262    8.884069    -26.952301    -32.461445    15.870061    -57.673988    -0.417100    -33.895023    -101.062065    -13.217410    -32.523544    -18.360371    -2.091663    -8.773102    0.720375    32.683273    -19.462467    78.893898    -1.874051    5.636412    98.712273    -13.960114    4.908005    23.470360    24.365730    -2.695384    6.190558    -3.490131    33.494888    -18.469933    6.602542    -16.980927    31.308287    0.000000    0.000000    0.000000    -95.151787    -44.996307    -57.706810    8.762038    20.682436    -6.924343    16.016682    18.355837    -23.484432    0.000000    0.000000    0.000000    
-24.360840    166.038208    -19.484442    -9.120808    -20.573854    43.292812    7.047204    5.952269    -1.881936    1.121021    5.374488    -0.566216    22.346800    -8.371179    -3.741124    -2.286695    2.884025    -9.193875    10.928937    8.873794    -26.939415    -32.443771    15.827232    -57.680073    -0.460509    -33.838211    -101.107155    -13.224257    -32.509037    -18.365362    -2.166036    -8.898687    0.888156    32.853062    -19.313015    79.163330    -2.002382    5.687901    98.959030    -13.893523    5.110271    23.646770    24.443043    -2.739738    6.161360    -3.496623    33.521141    -18.492739    6.804888    -16.889381    31.315672    0.000000    0.000000    0.000000    -95.136986    -45.018303    -57.742767    8.783344    20.736223    -6.871830    15.969463    18.336710    -23.443403    0.000000    0.000000    0.000000    
-24.444761    166.046219    -19.473982    -9.139341    -20.621565    43.317802    7.077039    6.004568    -1.847725    1.146647    5.374026    -0.554515    22.326191    -8.402208    -3.777700    -2.233808    2.882320    -9.227151    10.912920    8.859717    -26.946281    -32.419006    15.792808    -57.681103    -0.472555    -33.820915    -101.128227    -13.233347    -32.501045    -18.382849    -2.200098    -8.965425    1.020648    32.984821    -19.197111    79.406586    -2.070464    5.711968    99.189690    -13.755223    5.201116    24.057838    24.514585    -2.762242    6.124218    -3.501284    33.548481    -18.514853    6.574141    -16.955143    31.340672    0.000000    0.000000    0.000000    -95.102303    -45.036034    -57.769772    8.793591    20.787325    -6.843844    15.910982    18.332977    -23.322027    0.000000    0.000000    0.000000    
-24.525728    166.050568    -19.457214    -9.157686    -20.666880    43.337273    7.092261    6.053264    -1.813894    1.175639    5.370605    -0.543538    22.373964    -8.433681    -3.788110    -2.257580    2.886400    -9.257916    10.904641    8.842707    -26.959620    -32.404934    15.760828    -57.670273    -0.491493    -33.797207    -101.155800    -13.216423    -32.499649    -18.375780    -2.201290    -8.975875    1.100922    33.144176    -19.117260    79.703979    -2.069319    5.798170    99.372864    -13.662806    5.262174    24.466665    24.585699    -2.785081    6.099549    -3.493771    33.556099    -18.531162    6.775129    -16.875416    31.328096    0.000000    0.000000    0.000000    -95.076019    -45.059288    -57.797817    8.805245    20.842604    -6.818491    15.878482    18.317410    -23.229105    0.000000    0.000000    0.000000    
-24.601500    166.061157    -19.442305    -9.182380    -20.720781    43.347446    7.134185    6.103057    -1.783260    1.174579    5.354689    -0.531472    22.419168    -8.423925    -3.803975    -2.256366    2.866061    -9.283164    10.900753    8.833415    -26.999111    -32.406151    15.705381    -57.619606    -0.516520    -33.747223    -101.184776    -13.192026    -32.478222    -18.375954    -2.184321    -9.014708    1.205847    33.291420    -19.050251    79.895210    -2.017137    5.945746    99.556786    -13.520490    5.317330    25.033728    24.660429    -2.792768    6.096487    -3.470016    33.563217    -18.550707    6.767738    -16.865629    31.311300    0.000000    0.000000    0.000000    -95.031342    -45.084057    -57.826416    8.824330    20.889750    -6.776013    15.811428    18.326021    -23.123144    0.000000    0.000000    0.000000    
